<?xml version="1.0" encoding="utf-8"?>
<!-- Generator: Adobe Illustrator 25.4.1, SVG Export Plug-In . SVG Version: 6.00 Build 0)  -->
<svg version="1.1" id="Capa_1" xmlns="http://www.w3.org/2000/svg" xmlns:xlink="http://www.w3.org/1999/xlink" x="0px" y="0px"
	 viewBox="0 0 336.3 276.5" style="enable-background:new 0 0 336.3 276.5;" xml:space="preserve">
<style type="text/css">
	.st0{fill:#FFFFFF;}
</style>
<g>
	<g>
		<path class="st0" d="M331.1,194.7c-3.6-9-5.1-18.6-5.5-28.1c-0.2-4.1-0.2-8.1-0.2-12.1c0-6.8,0.2-13.5,0.5-20.1
			c0.2-4.7,0.4-9.1,0.5-13.2c0-3.6,1.9-9.7-3.1-11.4c-1.4-0.5-3-0.5-4.5-0.3c-1.9,0.2-3.9,0.8-5.4,1.9c-2.2,1.5-2.6,3.6-2.9,5.9
			c-0.2,2.5-0.6,6.2-1.2,11.1c-1,8.7-2.4,17.5-4.6,26.1c-1.5,6-3.3,12-6.1,17.7c-1.2,2.4-2.5,4.9-4.6,6.7c-2.3,2-5.9,2.5-8.4,0.4
			c-1.7-1.6-2.1-4-2.5-6.1c-0.5-2.5-0.9-5-1.1-7.5c0-2.3-0.4-4.7-0.4-7c0-2.5-0.1-5-0.1-7.5c0-3.9,0-7.9,0.4-11.8
			c0.5-5.5,2.9-11.1,0.9-16.6c-1.1-3-3.6-5.6-7.3-5.6c-1.9,0-3.8,0.5-5.4,1.4c-4.3,2.4-6.5,11.1-6.5,26.4c0,1.9-0.3,8,1.5,18.6
			c0.8,5.3,2.2,10.1,4,14.5c3.7,8.8,9.4,14.8,17.8,14.8c9.9,0,16-9.6,19.5-19.7c1.5,12.3,8.4,26.4,20.1,27.6
			c0.2,0.1,0.5,0.1,0.7,0.1c1.4,0,2.5-0.5,3.5-1.5C331.9,197.9,331.7,196.4,331.1,194.7z"/>
		<path class="st0" d="M135.7,191.9c-1.4-3.2-3.2-6.5-5.2-9.8c-5.2-7.2-9.3-14.2-12.4-20.9c-2.1-3.5-3.8-7.1-5-11
			c-1.3-3.8-2.1-7.7-2.3-11.7c0-4,0.9-8.3,2.9-11.9c0.4-0.7,0.9-1.3,1.6-1.6c1.6-0.7,4,0.4,4.7,1.8c0.5,1,0.8,2.1,0.8,3.3
			c0.3,1.4,0.2,2.7-0.2,4c-0.4,1.3-0.8,2.5-1.4,3.7c-0.5,0.9-0.9,1.7-1.2,2.4c-0.3,0.7-0.5,1.4-0.8,2.1c-0.9,2.6,0.4,5.1,3,6.4
			c1,0.5,2.1,0.6,3.2,0.5c1.1-0.1,1.7-0.5,2.7-1c1-0.5,2.3-1.6,3.9-3.5c3.9-6.3,5.3-12.3,4.3-18.1c-0.5-3.9-1.9-7.4-4.1-10.3
			c-2.2-2.9-5.5-4.9-9.9-6.1c-1.3-0.5-3.1-0.7-5.4-0.7c-5.2,0-9.5,1.6-13,4.9c-3.5,3.3-6.3,6.9-8.3,10.8c-4.1,9.8-4.4,20.1-0.8,31
			c1.6,5.6,3.8,10.8,6.8,15.7c3,4.9,6.4,9.5,10.3,13.9c2.3,2.6,4.3,5.2,5.8,8c1.6,2.8,2.6,5.8,3.1,9.1c0.8,4.4-0.9,6.6-5,6.6h-1.6
			c-3.6-0.5-6.6-1.9-8.9-4.4c-2.3-2.4-3.5-5.3-3.5-8.5c0-3,0.5-5.6,1.6-7.7c1.7-3.4-0.2-7-4-8.4c-4-1.5-8.5,1-10.4,4.2
			c-4.9,8.1-6.6,15.8-5,23.2c1.6,7.3,7.2,13.3,17.1,17.9c9.5,4.5,20.8,3.7,29.5-1.7c4.4-2.6,7.3-5.7,8.7-9.6c1.4-3.8,1.9-7.8,1.4-12
			C138.1,198.8,137.1,195.2,135.7,191.9z"/>
		<path class="st0" d="M266.4,114.5c0-1.9-1-3.3-3.1-4c-1.6-0.6-3.3-0.9-5.1-0.9c-1.5,0-3.2,0.2-4.8,0.6c-7.1,1.7-13.1,11.8-18,30.2
			c-0.4-6.4-1-11.5-1.8-15.2c-2.1-8.8-7.1-12.3-12-12.3c-2.6,0-4.7,0.8-6.3,2.5c-1.2,1.2-1.7,2.6-1.7,4.4c0,0.7,0.1,1.4,0.2,2.1
			c1.5,6.1,2.6,12.5,3.3,19.2c0.8,6.7,1.2,20.3,1.2,40.7c0,4.8,1.1,8.2,3.2,10.4c2.2,2.1,4.7,3.2,7.4,3.2c5.6-0.1,8.6-2.4,8.9-7
			c0.8-14.5,1.9-25.2,3.4-32.1c5.5-25.3,10.5-37.9,15.2-37.9c1.9,0,3.5,0.4,4.9,0.4C264.3,118.9,266.4,116.9,266.4,114.5z"/>
		<path class="st0" d="M204.4,166.6c-0.2-4.1-0.2-8.1-0.2-12.1c0-6.8,0.2-13.5,0.5-20.1c0.2-4.7,0.4-9.1,0.5-13.2
			c0-3.6,1.9-9.7-3.1-11.4c-1.4-0.5-3-0.5-4.5-0.3c-1.9,0.2-3.9,0.8-5.4,1.9c-2.2,1.5-2.6,3.6-2.9,5.9c-0.2,2.5-0.6,6.2-1.2,11.1
			c-1,8.7-2.4,17.5-4.6,26.1c-1.5,6-3.3,12-6.1,17.7c-1.2,2.4-2.5,4.9-4.6,6.7c-2.3,2-5.9,2.5-8.4,0.4c-1.7-1.6-2.1-4-2.5-6.1
			c-0.5-2.5-0.9-5-1.1-7.5c0-2.3-0.4-4.7-0.4-7c0-2.5-0.1-5-0.1-7.5c0-3.9,0-7.9,0.4-11.8c0.5-5.5,2.9-11.1,0.9-16.6
			c-1.1-3-3.6-5.6-7.3-5.6c-1.9,0-3.8,0.5-5.4,1.4c-4.3,2.4-6.5,11.1-6.5,26.4c0,1.9-0.3,8,1.5,18.6c0.8,5.3,2.2,10.1,4,14.5
			c3.7,8.8,9.4,14.8,17.8,14.8c9.9,0,16-9.6,19.5-19.7c1.5,12.3,8.4,26.4,20.1,27.6c0.2,0.1,0.5,0.1,0.7,0.1c1.4,0,2.5-0.5,3.5-1.5
			c1.3-1.4,1.1-3,0.4-4.6C206.2,185.7,204.7,176.2,204.4,166.6z"/>
		<path class="st0" d="M288.2,111.7c0.5,0.2,1,0.3,1.7,0.3c1.6,0,3.9-0.9,6.9-2.7c3-1.7,5.9-3.7,8.6-5.8c4.4-3.4,6.5-6,6.5-7.6
			c0-1.4-0.5-2.6-1.5-3.7c-0.9-1.1-2-1.9-3.2-2.5c-1.2-0.6-2.2-0.9-2.9-0.9c-2,0-3.5,0.5-4.5,1.3c-1,0.8-3.9,4.5-8.6,11.1l-4.2,5.8
			c-0.5,0.7-0.8,1.4-0.8,2C286.1,110.2,286.8,111,288.2,111.7z"/>
		<path class="st0" d="M86.7,69.1c1.2,0,2.3,0,3.5,0c20,0,39.6,1.8,58.4,8.2c2,0.7,4.1,1.4,6.3,1.5c5.3,0,7.7-4.9,6.2-9
			c-1.6-4.3-6.5-7.5-10.8-9.3c-7.5-3.3-15.9-5.3-24.1-7c-7-1.4-13.7-2.4-20.2-3.1C79.1,47.4,51.1,51.6,26.7,62
			c-6.5,2.8-18.2,8.3-19.4,15.5c-0.7,3.8,2.5,7.6,6.8,7.9c4.4,0.3,8.4-2.6,12.2-4.1c4.3-1.7,8.6-3.4,13-4.9
			c2.1-0.7,19.3-7.2,20.3-3.5c0.3,1-0.2,2.4-0.4,3.4c-3.2,17.3-4.6,34.5-4.7,51.7c-0.1,18.3,1.2,36.6,3.4,55
			c0.7,5.6,3.4,8.8,8.1,9.6c4.1,0.7,10.4,0,12.3-3.9c0.6-1.2,0.8-2.5,0.9-3.8c1.1-11.2-1.3-22.5-2-33.7c-0.6-10.2-0.7-20.4-0.4-30.6
			c0.4-13.7,1.7-27.3,3.6-40.9c0.3-1.9,0.6-3.8,0.7-5.8C81.3,69.2,86.7,69.1,86.7,69.1z"/>
	</g>
</g>
</svg>
